HIERARCHY
ROOT Hips
{
     OFFSET 1.88212 96.90440 -13.34250
     CHANNELS 6 Xposition Yposition Zposition Zrotation Xrotation Yrotation
     JOINT Spine
     {
          OFFSET 0.00000 11.89050 0.00000
          CHANNELS 3 Zrotation Xrotation Yrotation
          JOINT Spine1
          {
               OFFSET -0.00000 25.65740 0.12766
               CHANNELS 3 Zrotation Xrotation Yrotation
               JOINT HEad
               {
                    OFFSET 0.00000 8.73416 0.01134
                    CHANNELS 3 Zrotation Xrotation Yrotation
                    End Site
                    {
                         OFFSET -0.29000 12.77420 2.51395
                    }
               }
               JOINT LeftShoulder1
               {
                    OFFSET 8.99000 -0.36225 -0.22000
                    CHANNELS 3 Zrotation Xrotation Yrotation
                    JOINT LeftArm
                    {
                         OFFSET 10.28270 -0.00338 0.32212
                         CHANNELS 3 Zrotation Xrotation Yrotation
                         JOINT LeftForeArm
                         {
                              OFFSET 32.76690 0.09914 -1.42434
                              CHANNELS 3 Zrotation Xrotation Yrotation
                              JOINT LeftHand
                              {
                                   OFFSET 27.56430 0.08536 1.02216
                                   CHANNELS 3 Zrotation Xrotation Yrotation
                                   End Site
                                   {
                                        OFFSET 16.74430 -0.60000 1.50291
                                   }
                              }
                         }
                    }
               }
               JOINT RightShoulder
               {
                    OFFSET -8.99000 -0.36225 -0.22000
                    CHANNELS 3 Zrotation Xrotation Yrotation
                    JOINT RightArm
                    {
                         OFFSET -10.28270 -0.00338 0.32212
                         CHANNELS 3 Zrotation Xrotation Yrotation
                         JOINT RightForeArm
                         {
                              OFFSET -32.89710 0.09914 -1.42434
                              CHANNELS 3 Zrotation Xrotation Yrotation
                              JOINT RightHand
                              {
                                   OFFSET -27.49210 0.08536 1.02216
                                   CHANNELS 3 Zrotation Xrotation Yrotation
                                   End Site
                                   {
                                        OFFSET -16.63120 -0.60000 1.50291
                                   }
                              }
                         }
                    }
               }
          }
     }
     JOINT LeftUpLeg
     {
          OFFSET 8.94580 -8.66707 0.10165
          CHANNELS 3 Zrotation Xrotation Yrotation
          JOINT LeftLeg
          {
               OFFSET 0.00000 -44.42270 1.37270
               CHANNELS 3 Zrotation Xrotation Yrotation
               JOINT LeftFoot
               {
                    OFFSET -0.25355 -42.09240 -1.46059
                    CHANNELS 3 Zrotation Xrotation Yrotation
                    JOINT LeftToes
                    {
                         OFFSET -0.04000 -4.41509 8.49910
                         CHANNELS 3 Zrotation Xrotation Yrotation
                         End Site
                         {
                              OFFSET 0.08000 -0.04745 9.77979
                         }
                    }
               }
          }
     }
     JOINT RightUpLeg
     {
          OFFSET -8.94580 -8.66707 0.10165
          CHANNELS 3 Zrotation Xrotation Yrotation
          JOINT RightLeg
          {
               OFFSET 0.00000 -44.42270 1.37270
               CHANNELS 3 Zrotation Xrotation Yrotation
               JOINT RightFoot
               {
                    OFFSET 0.25355 -42.09240 -1.46059
                    CHANNELS 3 Zrotation Xrotation Yrotation
                    JOINT RightToes
                    {
                         OFFSET 0.04000 -4.41509 8.49910
                         CHANNELS 3 Zrotation Xrotation Yrotation
                         End Site
                         {
                              OFFSET -0.08000 -0.13745 9.77979
                         }
                    }
               }
          }
     }
}
MOTION
Frames: 10
Frame Time: 0.01667
-103.26866 89.86302 123.12906 -9.16492 14.21415 -132.22498 9.60693 19.84530 -2.90880 -0.00085 0.00463 0.00025 -3.87646 14.35198 15.68863 -2.72406 9.00571 1.53210 -124.94826 -72.46071 -100.46479 -39.41721 54.85388 -77.18878 17.52699 6.64201 -13.15294 10.67063 9.55050 -1.70231 82.48709 1.80876 69.74185 10.92387 31.97124 105.48422 16.81007 11.11953 5.05170 25.80968 -9.13110 -3.57282 -17.20293 18.76579 49.32184 -11.70957 -0.01583 0.01547 11.45603 1.39765 -47.29375 -28.29567 9.15585 17.40188 35.32763 31.51184 -35.85963 -30.22879 -0.00166 -0.00067 2.37816 -16.58743 19.01621 
-104.66762 90.52949 123.71608 -9.22178 14.11027 -132.18991 8.67457 20.25354 -2.83235 0.00036 0.00460 0.00032 -3.47185 13.93506 15.65635 -2.41311 8.74369 1.87721 -125.27164 -72.03014 -100.35275 -39.49474 55.38141 -77.51539 17.60561 6.82490 -13.14215 11.28450 9.36339 -1.44343 82.02324 1.33363 69.69785 11.02860 31.95435 105.76435 16.75016 11.07664 5.10233 25.55441 -7.81208 -0.30470 -17.80757 17.66790 47.04554 -9.72387 -0.01534 0.01299 11.34287 -0.14111 -48.94397 -28.41110 8.41251 17.86976 35.96760 32.09203 -36.63650 -30.02769 0.01209 0.00152 4.85831 -27.22647 16.89688 
-106.02538 91.15971 124.30533 -9.33052 13.98248 -132.07083 7.74407 20.63259 -2.77729 0.00122 0.00468 0.00042 -3.14807 13.55275 15.58354 -2.11997 8.51102 2.17816 -125.58518 -71.58362 -100.27968 -39.54681 55.91455 -77.86525 17.70815 7.00017 -13.11467 11.89433 9.19973 -1.21527 81.59969 0.85247 69.63641 11.14945 31.92846 106.04591 16.69503 11.01988 5.15825 25.17642 -6.55734 2.42441 -18.44969 16.65907 45.25188 -7.90407 -0.01456 0.01101 11.12083 -1.61928 -50.58036 -28.55338 7.60670 18.31955 36.78600 32.52335 -37.63797 -30.00382 0.01237 0.00536 4.07320 -22.74849 18.34715 
-107.33686 91.73422 124.88390 -9.47971 13.83374 -131.87529 6.83202 20.98117 -2.74072 0.00182 0.00484 0.00053 -2.90125 13.20267 15.47124 -1.84303 8.30791 2.43892 -125.91851 -71.11286 -100.27975 -39.59186 56.43912 -78.20425 17.82376 7.16022 -13.06178 12.48135 9.05784 -1.02384 81.23653 0.37737 69.56877 11.29631 31.90101 106.30244 16.64731 10.96054 5.22468 24.69427 -5.38538 4.64309 -19.09459 15.72991 43.90615 -6.24594 -0.01349 0.00943 10.81015 -3.02524 -52.18686 -28.69488 6.76521 18.74241 37.78469 32.84090 -38.74884 -30.00239 0.01026 0.00703 5.24153 -26.42076 18.35434 
-108.59556 92.24547 125.43978 -9.65788 13.66720 -131.61443 5.94948 21.29909 -2.71628 0.00206 0.00508 0.00058 -2.72500 12.88313 15.32090 -1.59075 8.13665 2.65755 -126.32447 -70.62199 -100.41013 -39.66463 56.94816 -78.48998 17.94528 7.28560 -12.97704 13.01962 8.93843 -0.87173 80.95710 -0.08213 69.50637 11.47124 31.88087 106.51590 16.61978 10.90634 5.28989 24.12744 -4.31529 6.38318 -19.71490 14.87296 42.97460 -4.74484 -0.01215 0.00813 10.43950 -4.35831 -53.73662 -28.80964 5.91903 19.13210 38.90282 33.01453 -39.85004 -30.00196 0.00881 0.00842 5.60170 -26.60965 19.01695 
-109.79531 92.69321 125.96898 -9.85307 13.48914 -131.30304 5.09775 21.57820 -2.68157 0.00253 0.00470 0.00077 -2.60102 12.60659 15.12340 -1.23325 8.01145 3.13883 -126.66794 -70.48199 -100.85220 -40.61930 55.86872 -78.65560 16.81633 6.68503 -12.61392 13.50811 8.85077 -0.73643 80.75963 -0.57019 69.45467 11.68850 31.86834 106.66629 16.60958 10.86648 5.35709 23.49771 -3.36219 7.67889 -20.28735 14.08302 42.42376 -3.39742 -0.01059 0.00700 10.03861 -5.63612 -55.20013 -28.88152 5.09505 19.48568 40.04804 33.02342 -40.85581 -30.00162 0.00774 0.00843 17.36677 -41.58073 25.75688 
-110.92751 93.08437 126.47176 -10.05629 13.30619 -130.95755 4.29325 21.81341 -2.62361 0.00258 0.00683 0.00053 -2.53228 12.38047 14.87674 -0.78836 7.94059 3.83239 -127.13374 -70.82568 -101.62149 -42.75642 54.19540 -79.37845 14.57981 7.35100 -10.88008 13.92158 8.79976 -0.65216 80.65414 -1.04743 69.42259 11.93178 31.86645 106.75368 16.61727 10.84431 5.41786 22.85391 -2.51299 7.48443 -21.05725 12.94994 43.25277 -2.20094 -0.00885 0.00592 9.62699 -6.87865 -56.55733 -28.89878 4.31083 19.80237 41.16654 32.84253 -41.74292 -30.00134 0.00677 0.00765 10.87093 -35.21888 21.36366 
-111.95573 93.39402 126.94309 -10.25859 13.10459 -130.60878 3.54140 21.99684 -2.52387 0.00172 0.00816 0.00042 -2.53944 12.20481 14.58754 -0.26991 7.92953 4.53198 -127.98566 -71.44305 -102.60669 -45.60826 53.13345 -81.04461 13.61265 7.84154 -7.50359 14.25524 8.78740 -0.58558 80.62811 -1.51292 69.40781 12.15182 31.88344 106.77442 16.62946 10.84004 5.47984 22.22295 -1.84991 5.98025 -21.93784 11.55128 45.31021 -1.15718 -0.00705 0.00487 9.20948 -8.08883 -57.80524 -28.84136 3.82027 20.08801 41.37287 32.38165 -42.05592 -29.48424 0.00870 0.00045 13.77493 -39.42585 22.81978 
-112.77370 93.67033 127.37778 -10.54495 12.93111 -130.27249 3.10023 21.61053 -2.60729 0.02405 -0.03239 -0.01167 -2.44300 12.67628 14.09270 2.37928 4.98500 4.90467 -120.87913 -74.81667 -94.42181 -48.92757 51.85759 -85.13405 10.42944 11.69262 -7.39622 17.14749 6.45561 0.07381 77.97153 -3.92660 66.74125 12.16125 31.94775 107.40380 12.29420 14.63205 5.49550 21.48766 -1.62583 4.61213 -22.16154 10.70096 45.73853 1.06384 0.00891 -0.02757 5.88573 -7.74496 -52.02699 -28.30038 3.72110 20.23305 40.00175 32.05650 -40.97527 -28.13000 0.00539 -0.01781 21.84035 -40.00228 28.14696 
-113.19674 93.87421 127.88579 -10.92292 12.75597 -129.96330 2.98382 20.71758 -2.90365 0.02994 -0.03202 -0.01475 -2.29172 13.71441 13.41381 7.02251 0.09150 3.89780 -101.12418 -79.35970 -72.79926 -51.40714 50.36975 -89.97670 6.13318 15.97379 -8.85707 21.90595 2.74164 1.07166 72.95789 -7.30793 62.39158 11.82400 32.12751 108.51830 6.06260 19.81881 5.24561 20.68622 -1.92633 3.41863 -22.02518 10.63603 44.79438 3.76277 0.04790 -0.03021 2.33498 -7.24608 -46.48751 -27.31621 3.97798 20.21438 37.23415 31.82087 -38.61985 -26.09246 -0.00877 -0.03845 29.65743 -34.93719 32.44586 
